# xmcd
#
# Track frame offsets: 
#        150
#        16036
#        35418
#        52151
#        80288
#        91453
#        105441
#        118849
#        136549
#        150432
#        174567
#
# Disc length: 2549 seconds
#
# Revision: 1
# Processed by: cddbd v1.5.2PL0 Copyright (c) Steve Scherf et al.
# Submitted via: ExactAudioCopyFreeDBPlugin 1.0
#
DISCID=7a09f30b
DTITLE=Sam Amidon - I See the Sign
DYEAR=2010
DGENRE=Folk
TTITLE0=How Come That Blood
TTITLE1=Way Go, Lily
TTITLE2=You Better Mind
TTITLE3=I See the Sign
TTITLE4=Johanna the Row-di
TTITLE5=Pretty Fair Damsel
TTITLE6=Kedron
TTITLE7=Rain and Snow
TTITLE8=Climbing High Mountains
TTITLE9=Relief
TTITLE10=Red
EXTD=
EXTT0=
EXTT1=
EXTT2=
EXTT3=
EXTT4=
EXTT5=
EXTT6=
EXTT7=
EXTT8=
EXTT9=
EXTT10=
PLAYORDER=
